<mxfile host="app.diagrams.net" modified="2024-03-14T20:33:24.821Z" agent="Mozilla/5.0 (Windows NT 10.0; Win64; x64) AppleWebKit/537.36 (KHTML, like Gecko) Chrome/122.0.0.0 Safari/537.36" etag="vgVXAEmroTfFxsufvUen" version="24.0.6" type="github">
  <diagram name="Page-1" id="e7e014a7-5840-1c2e-5031-d8a46d1fe8dd">
    <mxGraphModel dx="993" dy="1400" grid="1" gridSize="10" guides="1" tooltips="1" connect="1" arrows="1" fold="1" page="1" pageScale="1" pageWidth="1169" pageHeight="826" background="none" math="0" shadow="0">
      <root>
        <mxCell id="0" />
        <mxCell id="1" parent="0" />
        <mxCell id="2" value="PALÍNDROMO MDC" style="swimlane;whiteSpace=wrap;fontSize=17;" parent="1" vertex="1">
          <mxGeometry x="300" y="-600" width="460" height="320" as="geometry" />
        </mxCell>
        <mxCell id="ysUO9nVOSMD8kVjdfscW-48" value="&lt;font style=&quot;font-size: 18px;&quot;&gt;&lt;b&gt;CadenaDeTexto ----&amp;gt;&amp;nbsp; &amp;nbsp;str&amp;nbsp; &amp;nbsp; &amp;nbsp; &amp;nbsp; &amp;nbsp; atributo&lt;/b&gt;&lt;/font&gt;" style="text;html=1;align=center;verticalAlign=middle;whiteSpace=wrap;rounded=0;" vertex="1" parent="2">
          <mxGeometry x="-30" y="50" width="430" height="40" as="geometry" />
        </mxCell>
        <mxCell id="ysUO9nVOSMD8kVjdfscW-50" value="&lt;b&gt;&lt;font style=&quot;font-size: 18px;&quot;&gt;esPalindromo()&lt;/font&gt;&lt;/b&gt;&lt;b style=&quot;font-size: 18px;&quot;&gt;----&amp;gt; none&amp;nbsp; &amp;nbsp; &amp;nbsp; &amp;nbsp; &amp;nbsp; &amp;nbsp;@classmethod&lt;/b&gt;" style="text;html=1;align=center;verticalAlign=middle;whiteSpace=wrap;rounded=0;" vertex="1" parent="2">
          <mxGeometry x="-30" y="180" width="490" height="30" as="geometry" />
        </mxCell>
        <mxCell id="ysUO9nVOSMD8kVjdfscW-52" value="&lt;font style=&quot;font-size: 18px;&quot;&gt;&lt;b&gt;my_input&amp;nbsp;&lt;/b&gt;&lt;/font&gt;&lt;b style=&quot;font-size: 18px;&quot;&gt;----&amp;gt; input(str)&lt;/b&gt;" style="text;html=1;align=center;verticalAlign=middle;whiteSpace=wrap;rounded=0;" vertex="1" parent="2">
          <mxGeometry x="20" y="90" width="220" height="60" as="geometry" />
        </mxCell>
        <mxCell id="ysUO9nVOSMD8kVjdfscW-53" value="" style="endArrow=none;html=1;rounded=0;exitX=0;exitY=0.5;exitDx=0;exitDy=0;entryX=1;entryY=0.5;entryDx=0;entryDy=0;" edge="1" parent="1" source="2" target="2">
          <mxGeometry width="50" height="50" relative="1" as="geometry">
            <mxPoint x="320" y="-200" as="sourcePoint" />
            <mxPoint x="780" y="-200" as="targetPoint" />
          </mxGeometry>
        </mxCell>
      </root>
    </mxGraphModel>
  </diagram>
</mxfile>
